<mxfile host="65bd71144e">
    <diagram id="ox2UJ6qeZwPKcX6qzBHs" name="Page-1">
        <mxGraphModel dx="850" dy="736" grid="1" gridSize="10" guides="1" tooltips="1" connect="1" arrows="1" fold="1" page="1" pageScale="1" pageWidth="850" pageHeight="1100" math="0" shadow="0">
            <root>
                <mxCell id="0"/>
                <mxCell id="1" parent="0"/>
                <mxCell id="6" value="" style="html=1;verticalLabelPosition=bottom;align=center;labelBackgroundColor=#ffffff;verticalAlign=top;strokeWidth=2;strokeColor=#000000;shadow=0;dashed=0;shape=mxgraph.ios7.icons.reload;fontSize=16;direction=east;fillColor=#000000;" vertex="1" parent="1">
                    <mxGeometry x="250" y="40" width="60" height="67.5" as="geometry"/>
                </mxCell>
                <mxCell id="10" value="UAT" style="rounded=0;whiteSpace=wrap;html=1;strokeColor=#000000;fontSize=14;fillColor=#FFFFFF;strokeWidth=2;fontStyle=1" vertex="1" parent="1">
                    <mxGeometry x="360" y="42.5" width="90" height="30" as="geometry"/>
                </mxCell>
                <mxCell id="13" value="Release" style="rounded=0;whiteSpace=wrap;html=1;strokeColor=#000000;fontSize=14;fillColor=#FFFFFF;strokeWidth=2;fontStyle=1" vertex="1" parent="1">
                    <mxGeometry x="430" y="80" width="90" height="30" as="geometry"/>
                </mxCell>
                <mxCell id="14" value="Specification" style="rounded=0;whiteSpace=wrap;html=1;strokeColor=#000000;fontSize=14;fillColor=#FFFFFF;strokeWidth=2;fontStyle=1" vertex="1" parent="1">
                    <mxGeometry x="40" y="42.5" width="110" height="30" as="geometry"/>
                </mxCell>
                <mxCell id="15" value="Design" style="rounded=0;whiteSpace=wrap;html=1;strokeColor=#000000;fontSize=14;fillColor=#FFFFFF;strokeWidth=2;fontStyle=1" vertex="1" parent="1">
                    <mxGeometry x="110" y="80" width="90" height="30" as="geometry"/>
                </mxCell>
                <mxCell id="17" value="Construction" style="rounded=0;whiteSpace=wrap;html=1;strokeColor=none;fontSize=14;fillColor=none;strokeWidth=2;fontStyle=1" vertex="1" parent="1">
                    <mxGeometry x="235" y="107.5" width="90" height="30" as="geometry"/>
                </mxCell>
                <mxCell id="18" value="" style="endArrow=classic;html=1;fontSize=14;strokeWidth=2;" edge="1" parent="1">
                    <mxGeometry width="50" height="50" relative="1" as="geometry">
                        <mxPoint x="160" y="52.5" as="sourcePoint"/>
                        <mxPoint x="180" y="72.5" as="targetPoint"/>
                    </mxGeometry>
                </mxCell>
                <mxCell id="20" value="" style="endArrow=classic;html=1;fontSize=14;strokeWidth=2;" edge="1" parent="1">
                    <mxGeometry width="50" height="50" relative="1" as="geometry">
                        <mxPoint x="460" y="52.5" as="sourcePoint"/>
                        <mxPoint x="480" y="72.5" as="targetPoint"/>
                    </mxGeometry>
                </mxCell>
            </root>
        </mxGraphModel>
    </diagram>
</mxfile>
